<?xml version="1.0" standalone="no"?>
<!DOCTYPE svg PUBLIC "-//W3C//DTD SVG 20010904//EN"
 "http://www.w3.org/TR/2001/REC-SVG-20010904/DTD/svg10.dtd">
<svg version="1.0" xmlns="http://www.w3.org/2000/svg"
 width="270.000000pt" height="270.000000pt" viewBox="0 0 270.000000 270.000000"
 preserveAspectRatio="xMidYMid meet">
<metadata>
Created by potrace 1.14, written by Peter Selinger 2001-2017
</metadata>
<g transform="translate(0.000000,270.000000) scale(0.100000,-0.100000)"
fill="#000000" stroke="none">
<path d="M1166 2692 c-3 -5 -17 -8 -32 -6 -19 2 -28 -3 -31 -17 -6 -20 -24
-17 -19 4 1 7 1 9 -1 4 -3 -4 -9 -4 -15 -1 -5 4 -5 -4 2 -16 9 -16 9 -20 1
-15 -7 4 -17 2 -24 -4 -7 -5 -19 -6 -26 -2 -9 6 -10 11 -2 15 6 4 11 2 11 -4
0 -6 5 -8 10 -5 14 9 12 24 -2 21 -7 -1 -29 -12 -48 -24 -31 -19 -36 -20 -46
-7 -10 14 -12 14 -17 1 -4 -9 1 -20 11 -25 9 -6 12 -11 5 -11 -6 0 -19 7 -27
16 -9 9 -16 11 -16 4 0 -6 -6 -8 -12 -5 -7 4 -4 -1 7 -11 14 -11 15 -15 4 -11
-9 3 -35 -3 -58 -14 -23 -10 -40 -15 -37 -10 3 4 -1 8 -9 8 -10 0 -11 -5 -5
-17 7 -13 5 -16 -8 -15 -10 0 -23 4 -29 8 -6 4 -14 3 -18 -2 -3 -5 -14 -8 -25
-6 -18 3 -25 -5 -21 -27 0 -5 -6 -8 -14 -8 -8 0 -15 -7 -15 -15 0 -12 -4 -13
-19 -6 -16 9 -18 8 -14 -9 3 -12 -1 -22 -11 -26 -9 -3 -14 -9 -11 -13 2 -4 -3
-8 -12 -8 -13 0 -12 4 5 18 18 14 19 18 7 23 -8 3 -14 0 -12 -7 1 -7 -6 -11
-15 -11 -10 1 -16 -2 -13 -6 3 -5 -1 -11 -7 -13 -10 -4 -10 -6 0 -6 6 -1 12
-6 12 -11 0 -12 -22 -9 -33 5 -5 6 -7 -1 -4 -16 2 -16 -1 -26 -9 -26 -7 0 -11
3 -9 7 2 3 -1 12 -6 20 -9 13 -10 13 -8 0 3 -28 -1 -41 -11 -35 -5 3 -7 0 -4
-8 3 -8 -2 -20 -11 -27 -14 -12 -18 -11 -26 1 -7 12 -9 12 -9 -1 0 -13 -1 -13
-10 0 -6 9 -10 10 -10 3 0 -7 8 -17 18 -23 15 -10 14 -11 -6 -7 -12 3 -22 1
-22 -5 0 -5 -4 -7 -9 -3 -5 3 -12 1 -15 -4 -4 -5 -1 -13 5 -17 8 -5 9 -3 4 7
-7 12 -6 12 6 1 12 -11 11 -15 -4 -23 -9 -6 -14 -15 -11 -21 4 -7 2 -8 -5 -4
-9 6 -9 11 0 22 8 10 8 14 0 14 -6 0 -11 -5 -11 -11 0 -5 -4 -8 -9 -4 -11 6
-24 -12 -28 -40 -3 -16 -1 -17 7 -5 5 8 10 11 10 5 0 -5 -5 -17 -10 -25 -6
-10 -10 -11 -10 -2 0 6 -5 12 -11 12 -6 0 -8 -7 -5 -16 4 -12 2 -15 -9 -10 -8
3 -15 1 -15 -5 0 -6 -5 -7 -10 -4 -6 4 -9 3 -8 -2 4 -14 -23 -54 -32 -48 -6 3
-7 -1 -4 -9 8 -21 9 -21 33 19 11 19 26 35 33 35 8 -1 6 -6 -6 -15 -10 -8 -15
-19 -10 -26 4 -7 3 -10 -4 -5 -6 3 -13 -3 -17 -14 -3 -11 -15 -20 -26 -20 -10
0 -19 -4 -19 -10 0 -5 8 -7 18 -4 14 5 14 4 2 -4 -10 -8 -18 -8 -27 -1 -9 8
-10 4 -4 -18 6 -22 5 -30 -4 -30 -8 0 -11 7 -7 16 6 17 4 16 -18 -13 -8 -11
-10 -17 -4 -13 7 4 11 -2 11 -18 0 -13 -6 -26 -14 -29 -8 -3 -12 -10 -9 -15 5
-8 -32 -49 -40 -43 -2 1 -4 0 -4 -3 0 -3 0 -7 0 -10 0 -3 10 -1 23 5 21 11 21
11 2 -5 -11 -8 -25 -13 -33 -10 -7 2 -10 1 -7 -4 3 -6 -3 -15 -12 -21 -17 -11
-17 -11 0 -6 15 5 17 0 15 -29 -1 -18 -6 -31 -11 -28 -4 3 -7 -3 -5 -13 2 -14
-3 -19 -18 -18 -12 0 -21 -7 -21 -18 -1 -10 3 -18 8 -18 6 0 7 5 4 10 -3 6 1
10 9 10 13 0 14 -3 4 -19 -7 -11 -17 -17 -23 -13 -5 3 -3 -3 5 -13 10 -12 10
-16 2 -11 -9 6 -12 1 -10 -16 2 -12 7 -29 12 -37 6 -10 5 -12 -2 -7 -7 4 -12
1 -12 -8 0 -9 -5 -16 -10 -16 -7 0 -7 6 -1 18 7 14 6 19 -3 19 -8 0 -12 -10
-10 -24 1 -12 -2 -25 -7 -29 -12 -7 -12 -24 1 -24 5 0 9 5 7 11 -1 6 5 14 13
16 13 4 13 3 0 -6 -8 -6 -11 -11 -6 -11 5 0 2 -8 -6 -17 -17 -20 -20 -55 -4
-46 6 4 2 -4 -8 -16 -15 -16 -16 -20 -5 -16 10 4 16 0 16 -9 0 -8 -4 -13 -8
-10 -4 2 -10 0 -14 -6 -3 -5 -1 -10 5 -10 6 0 8 -4 5 -10 -3 -5 2 -21 11 -35
15 -23 15 -25 0 -19 -9 3 -13 11 -9 17 3 6 1 7 -5 3 -14 -8 -6 -32 11 -33 7 0
21 -4 31 -9 13 -5 17 -4 13 3 -5 8 1 9 20 4 16 -5 27 -14 25 -21 -3 -11 0 -11
12 -1 18 15 11 35 -7 25 -7 -4 -8 -3 -4 1 9 11 37 16 36 7 -1 -4 -1 -14 1 -22
1 -11 4 -9 10 5 8 18 9 18 9 2 1 -10 5 -16 11 -12 5 3 6 13 3 23 -6 16 -6 16
10 0 16 -15 37 -15 77 -1 25 10 39 11 39 5 -3 -19 2 -32 12 -32 5 0 8 3 5 8
-2 4 7 12 20 19 21 10 26 8 39 -10 8 -12 15 -16 15 -9 0 6 5 12 11 12 5 0 7
-6 3 -12 -5 -10 -3 -10 7 0 12 11 12 14 -1 22 -9 6 -10 10 -3 10 6 0 18 -7 27
-15 13 -14 15 -13 14 2 0 10 3 27 7 38 7 16 6 18 -6 8 -7 -7 -18 -13 -23 -13
-6 0 -3 5 7 11 9 6 14 15 11 21 -5 8 -1 9 10 5 9 -4 14 -3 11 2 -3 5 3 12 12
14 15 4 16 5 2 6 -27 2 -30 29 -6 52 16 15 18 19 5 14 -11 -4 -18 -2 -18 4 0
6 6 11 14 11 8 0 17 7 20 16 9 24 7 31 -5 12 -5 -10 -15 -18 -21 -18 -7 0 -7
4 1 14 6 7 12 25 13 39 1 14 6 23 11 20 5 -3 6 5 2 18 -7 23 -7 24 8 4 16 -20
16 -19 10 4 -5 18 -3 22 7 16 8 -5 11 -4 6 3 -3 5 0 13 6 16 7 3 0 3 -15 1
-23 -3 -27 -1 -17 10 6 7 20 12 31 10 11 -2 17 0 14 4 -2 5 2 15 11 22 14 12
14 14 -3 27 -17 14 -17 14 5 9 15 -3 20 -2 15 6 -13 21 -11 36 3 30 8 -3 11
-10 7 -17 -3 -6 -2 -8 2 -3 5 4 10 16 12 27 2 11 5 30 7 43 2 15 10 22 24 21
18 -1 20 2 11 17 -7 15 -6 17 5 13 16 -6 50 48 38 61 -4 5 -1 5 6 1 7 -4 12
-2 12 5 0 7 3 9 6 6 4 -4 1 -13 -5 -21 -9 -11 -9 -16 1 -22 7 -4 10 -4 6 0 -3
4 0 19 7 33 7 14 11 33 8 42 -4 13 -3 14 5 1 6 -8 9 -17 6 -21 -2 -4 0 -11 6
-14 6 -4 9 -1 8 7 -2 7 3 12 10 10 8 -1 11 2 7 8 -3 6 4 14 17 19 13 6 17 10
11 10 -7 1 -13 8 -13 17 0 14 1 14 16 0 21 -22 27 -20 14 3 -15 29 -12 37 6
15 8 -10 12 -13 9 -6 -5 9 1 15 14 19 19 5 25 15 22 36 0 4 4 7 10 7 6 0 8 -9
4 -22 -4 -16 -4 -19 3 -9 6 8 15 10 23 5 10 -6 10 -3 -1 11 -14 17 -13 18 3
12 11 -4 17 -2 17 8 0 7 4 17 10 20 5 3 7 0 4 -8 -3 -8 1 -14 10 -14 8 0 18 7
20 14 3 8 10 12 15 8 12 -7 33 29 23 40 -4 5 -1 5 6 1 7 -4 10 -13 6 -19 -3
-7 2 -3 10 7 16 20 16 20 17 0 0 -12 2 -14 6 -5 8 20 43 53 43 41 0 -7 6 -7
20 0 11 6 20 8 20 4 0 -3 7 0 17 7 15 13 15 12 3 -11 -11 -21 -11 -23 1 -13 8
6 17 11 21 10 3 -1 10 2 15 7 5 5 3 6 -4 2 -9 -5 -11 -2 -6 10 5 14 8 13 20
-7 8 -14 12 -16 9 -6 -4 11 -2 16 5 12 5 -4 16 -2 24 5 9 7 15 8 20 0 3 -5 1
-10 -5 -10 -6 0 -8 -5 -4 -11 5 -8 10 -6 16 5 5 9 13 14 18 11 5 -3 11 -1 15
5 9 15 25 12 25 -6 0 -9 -5 -12 -12 -8 -7 5 -8 3 -3 -6 6 -10 11 -9 21 5 7 10
11 21 9 25 -2 4 2 7 10 7 12 0 12 -3 2 -15 -10 -13 -9 -14 10 -4 31 17 38 15
52 -10 11 -22 11 -21 6 5 l-6 29 26 -27 c14 -16 25 -24 25 -18 0 15 34 11 46
-5 9 -12 13 -12 19 -2 5 9 4 11 -3 6 -7 -4 -12 -3 -12 3 0 5 9 9 19 8 11 0 18
-4 15 -8 -2 -4 0 -10 6 -14 9 -6 15 8 11 29 -1 5 4 4 12 -2 8 -7 16 -10 19 -7
3 3 11 -3 19 -12 13 -17 13 -17 -6 -4 -19 14 -19 14 -2 -5 15 -16 19 -17 27
-4 8 13 10 13 10 -2 0 -21 16 -32 26 -17 4 8 3 9 -4 5 -8 -5 -10 -1 -5 9 4 13
8 14 14 4 4 -7 5 -17 3 -21 -3 -4 0 -8 6 -8 6 0 9 -4 6 -8 -4 -7 16 -11 72
-13 12 -1 22 -5 22 -11 0 -5 4 -6 10 -3 6 3 7 -1 4 -10 -5 -12 -2 -14 12 -8
17 6 17 5 5 -10 -16 -20 -8 -22 21 -6 15 8 19 8 14 0 -6 -10 6 -15 26 -12 5 0
7 -2 7 -7 -4 -22 3 -32 24 -33 12 0 16 -3 10 -6 -7 -2 -13 -9 -13 -14 0 -6 8
-5 20 1 12 6 20 7 20 1 0 -5 -6 -12 -12 -14 -10 -4 -10 -6 0 -6 7 -1 10 -6 6
-13 -4 -6 -3 -8 4 -4 6 3 14 1 17 -5 4 -5 14 -8 24 -4 13 5 14 4 4 -6 -16 -16
-17 -33 -2 -23 7 4 10 1 7 -7 -3 -8 -10 -13 -16 -12 -6 2 -9 -7 -7 -18 3 -16
1 -18 -9 -10 -10 8 -17 7 -27 -6 -9 -11 -10 -14 -1 -9 7 4 12 2 12 -5 0 -6 -8
-9 -19 -6 -15 4 -18 -1 -16 -23 2 -25 -1 -28 -25 -26 -28 2 -32 -18 -7 -27 7
-2 5 -3 -4 -2 -19 3 -52 -32 -54 -56 -1 -9 4 -16 11 -16 9 0 10 5 3 19 -6 11
-6 18 0 18 5 0 13 -9 16 -20 8 -25 20 -26 35 -2 9 13 10 13 7 1 -3 -9 -1 -22
4 -30 7 -12 9 -12 10 1 1 8 1 18 0 23 0 4 4 7 9 7 6 0 10 -4 10 -9 0 -5 7 -11
15 -15 13 -4 14 -2 5 14 -9 16 -8 18 5 14 8 -4 15 -10 15 -14 0 -4 7 -10 15
-14 13 -4 14 -2 5 14 -9 16 -8 18 5 14 8 -4 15 -10 15 -14 0 -4 7 -11 16 -14
13 -5 14 -4 6 7 -9 10 -8 14 3 14 8 0 15 -4 15 -8 0 -4 7 -10 16 -13 13 -5 14
-4 6 7 -9 10 -8 14 3 14 8 0 15 -4 15 -8 0 -4 7 -10 16 -13 13 -5 14 -4 6 7
-9 10 -8 14 3 14 8 0 15 -4 15 -8 0 -4 7 -10 16 -13 13 -5 14 -4 6 7 -9 10 -8
14 3 14 8 0 15 -4 15 -8 0 -4 7 -10 16 -13 13 -5 14 -4 6 7 -9 10 -8 14 3 14
8 0 15 -4 15 -8 0 -13 29 -18 36 -7 4 6 3 8 -4 4 -6 -3 -14 -1 -18 5 -4 8 -3
9 4 5 7 -4 12 -1 12 6 0 8 3 9 8 3 10 -15 74 -16 65 -1 -3 6 0 5 8 -2 12 -11
12 -14 -1 -22 -9 -6 -10 -10 -3 -10 7 0 17 8 22 18 8 13 11 14 11 2 1 -10 4
-9 10 5 6 15 9 16 9 4 1 -9 12 -21 26 -27 21 -10 26 -9 34 7 6 10 7 22 3 26
-4 5 -1 5 6 1 7 -4 10 -11 8 -15 -3 -4 4 -7 14 -8 11 -1 22 2 25 8 3 5 -2 6
-12 3 -14 -5 -15 -4 -4 4 8 6 19 8 26 6 6 -3 17 7 23 21 7 15 8 24 2 20 -11
-7 -14 48 -3 59 9 9 13 36 5 35 -4 -1 -14 -1 -22 1 -11 1 -9 4 5 10 18 8 18 9
2 9 -10 1 -16 5 -12 11 3 5 13 7 23 4 10 -4 13 -2 7 3 -6 4 -12 24 -14 43 -4
43 -9 52 -24 43 -7 -4 -6 0 2 10 14 18 36 13 25 -6 -4 -7 -3 -8 1 -4 11 9 16
37 7 36 -4 -1 -14 -1 -22 1 -11 1 -9 4 5 10 18 8 18 9 2 9 -10 1 -16 5 -12 11
3 5 13 7 23 4 10 -4 13 -2 7 3 -6 4 -12 24 -14 43 -4 43 -9 52 -24 43 -7 -4
-6 0 2 10 14 18 36 13 25 -6 -4 -7 -3 -8 1 -4 11 9 16 37 7 36 -20 -3 -32 2
-27 11 4 6 10 8 15 5 4 -3 7 3 5 12 -1 10 3 24 9 32 8 11 8 13 -1 7 -10 -5
-13 3 -13 30 0 20 -9 51 -20 69 -15 25 -17 32 -5 32 8 0 12 -4 9 -9 -7 -10 14
-38 28 -38 5 0 2 7 -7 16 -13 14 -14 19 -3 25 7 5 9 9 3 10 -50 6 -62 4 -62
-7 0 -7 3 -11 7 -9 4 2 7 -2 7 -10 0 -11 -4 -12 -13 -4 -16 13 -30 5 -46 -24
-10 -19 -9 -20 4 -10 12 10 15 10 15 -2 0 -8 -4 -12 -8 -9 -4 2 -10 0 -14 -5
-3 -5 -14 -8 -25 -6 -11 2 -23 -1 -26 -7 -4 -7 -2 -8 4 -4 7 4 12 1 12 -8 0
-19 -11 -20 -29 -3 -11 10 -13 10 -7 0 5 -9 0 -13 -12 -13 -17 0 -33 19 -36
42 -1 3 -5 10 -10 15 -5 5 -6 3 -2 -4 4 -8 1 -13 -9 -13 -10 0 -13 5 -9 12 5
8 2 9 -11 5 -14 -6 -16 -3 -12 13 3 10 2 19 -2 18 -3 -1 -14 2 -25 7 -12 5
-21 3 -27 -6 -5 -8 -9 -9 -9 -3 0 5 5 15 12 22 9 9 8 12 -7 13 -11 1 -24 1
-28 0 -5 -1 -5 9 -1 21 6 20 5 21 -10 9 -9 -8 -19 -11 -23 -7 -3 3 0 6 7 6 8
0 5 7 -8 19 -12 10 -18 22 -14 26 4 5 1 5 -6 1 -10 -6 -10 -11 -1 -22 10 -12
9 -13 -5 -8 -9 4 -16 14 -14 24 2 9 -1 16 -7 16 -5 -1 -9 -4 -8 -8 2 -4 -4 -5
-12 -2 -18 7 -20 21 -3 26 7 3 5 7 -6 11 -9 4 -15 3 -12 -1 2 -4 1 -14 -3 -21
-6 -8 -10 -2 -14 19 -4 17 -12 30 -19 29 -27 -3 -39 1 -32 13 4 7 3 8 -5 4 -7
-5 -9 -13 -4 -20 4 -7 1 -5 -7 4 -20 21 -90 61 -90 52 0 -5 6 -14 13 -21 6 -8
0 -6 -15 4 -34 21 -61 25 -70 11 -4 -6 -6 3 -4 21 2 23 0 30 -10 26 -7 -3 -12
-9 -11 -13 1 -4 -2 -8 -8 -8 -5 -1 -9 5 -7 12 1 9 -6 12 -25 9 -20 -3 -24 -2
-15 5 11 7 11 10 -3 15 -9 4 -13 3 -10 -2 3 -5 1 -12 -5 -16 -5 -3 -10 0 -10
7 0 8 -12 15 -27 16 -15 1 -32 7 -37 12 -6 6 -16 4 -27 -6 -15 -13 -18 -13
-32 1 -17 17 -32 20 -22 6 3 -6 -4 -8 -17 -5 -66 14 -70 15 -62 3 5 -9 3 -9
-7 -3 -20 13 -92 14 -107 2 -9 -8 -11 -6 -6 8 5 18 5 18 -10 0 -9 -11 -16 -15
-16 -9 0 17 -40 23 -47 7 -4 -12 -8 -12 -20 3 -8 10 -12 13 -9 6 4 -6 2 -14
-4 -18 -5 -3 -10 -1 -10 6 0 7 -3 9 -7 6 -3 -4 -12 -2 -19 4 -7 6 -15 6 -18 1z
m-10 -24 c5 -7 2 -8 -6 -3 -7 4 -15 2 -20 -5 -5 -9 -8 -8 -13 2 -6 17 29 22
39 6z m454 -9 c0 -5 -4 -9 -8 -9 -5 0 -9 7 -9 15 0 8 4 12 9 9 4 -3 8 -9 8
-15z m44 -8 c4 -5 -3 -7 -14 -4 -23 6 -26 13 -6 13 8 0 17 -4 20 -9z m261 -91
c3 -5 1 -10 -4 -10 -6 0 -11 5 -11 10 0 6 2 10 4 10 3 0 8 -4 11 -10z m-1185
-35 c11 -13 10 -14 -2 -10 -8 3 -21 -1 -28 -10 -7 -8 -17 -15 -23 -15 -6 0 -2
7 9 15 10 8 15 15 9 15 -7 0 12 19 21 20 1 0 7 -7 14 -15z m1270 -8 c0 -8 -3
-8 -9 2 -6 9 -11 10 -15 2 -4 -6 -12 -11 -19 -11 -6 0 -2 6 8 14 21 15 35 12
35 -7z m288 -222 c-3 -3 -9 2 -12 12 -6 14 -5 15 5 6 7 -7 10 -15 7 -18z m216
-21 c3 -8 2 -12 -4 -9 -6 3 -10 10 -10 16 0 14 7 11 14 -7z m-2141 -28 c4 -10
1 -13 -8 -9 -8 3 -12 9 -9 14 7 12 11 11 17 -5z m934 8 c-3 -3 -12 -4 -19 -1
-8 3 -5 6 6 6 11 1 17 -2 13 -5z m177 -5 c9 8 13 7 13 -3 0 -17 -30 -14 -33 3
-2 7 0 7 3 1 3 -7 9 -8 17 -1z m248 -73 c7 4 8 2 4 -5 -9 -13 -26 -5 -25 12 0
9 2 8 6 -1 2 -6 10 -9 15 -6z m-747 -5 c3 -5 2 -12 -3 -15 -5 -3 -9 1 -9 9 0
17 3 19 12 6z m795 -7 c0 -8 -19 -13 -24 -6 -3 5 1 9 9 9 8 0 15 -2 15 -3z
m725 -44 c10 -11 16 -20 13 -20 -3 0 -13 9 -23 20 -10 11 -16 20 -13 20 3 0
13 -9 23 -20z m-1729 -98 c-17 -16 -18 -16 -5 5 7 12 15 20 18 17 3 -2 -3 -12
-13 -22z m1210 -12 c0 -12 -4 -16 -9 -11 -5 5 -6 14 -3 20 10 15 12 14 12 -9z
m519 -50 c10 -11 16 -20 13 -20 -3 0 -13 9 -23 20 -10 11 -16 20 -13 20 3 0
13 -9 23 -20z m16 -103 c-13 -13 -26 -3 -16 12 3 6 11 8 17 5 6 -4 6 -10 -1
-17z m-561 9 c0 -3 -4 -8 -10 -11 -5 -3 -10 -1 -10 4 0 6 5 11 10 11 6 0 10
-2 10 -4z m560 -87 c0 -5 -5 -9 -12 -9 -6 0 -8 3 -5 7 4 3 1 13 -6 22 -11 14
-10 14 6 2 9 -7 17 -17 17 -22z m-1954 -38 c-13 -12 -18 -13 -28 -2 -11 10 -9
11 6 5 12 -5 17 -4 13 3 -3 5 1 10 9 10 13 0 13 -2 0 -16z m1864 -7 c0 -12 -4
-12 -20 -4 -11 6 -20 12 -20 13 0 2 9 3 20 4 12 1 20 -4 20 -13z"/>
<path d="M1555 2680 c3 -5 8 -10 11 -10 2 0 4 5 4 10 0 6 -5 10 -11 10 -5 0
-7 -4 -4 -10z"/>
<path d="M956 2643 c-6 -14 -5 -15 5 -6 7 7 10 15 7 18 -3 3 -9 -2 -12 -12z"/>
<path d="M1786 2618 c3 -5 10 -6 15 -3 13 9 11 12 -6 12 -8 0 -12 -4 -9 -9z"/>
<path d="M1820 2620 c0 -5 5 -10 11 -10 5 0 7 5 4 10 -3 6 -8 10 -11 10 -2 0
-4 -4 -4 -10z"/>
<path d="M827 2596 c-4 -10 -1 -13 9 -9 15 6 19 23 5 23 -5 0 -11 -7 -14 -14z"/>
<path d="M456 2355 c4 -8 10 -12 15 -9 11 6 2 24 -11 24 -5 0 -7 -7 -4 -15z"/>
<path d="M2370 2346 c0 -2 7 -7 16 -10 8 -3 12 -2 9 4 -6 10 -25 14 -25 6z"/>
<path d="M1382 2231 c-11 -7 -11 -9 0 -14 9 -3 15 1 15 9 0 8 -1 14 -1 14 -1
0 -7 -4 -14 -9z"/>
<path d="M1123 2213 c-15 -5 -17 -23 -4 -23 5 0 11 7 15 15 3 8 4 15 3 14 -1
0 -8 -3 -14 -6z"/>
<path d="M1770 2130 c0 -5 5 -10 11 -10 5 0 7 5 4 10 -3 6 -8 10 -11 10 -2 0
-4 -4 -4 -10z"/>
<path d="M1866 2067 c3 -10 9 -15 12 -12 3 3 0 11 -7 18 -10 9 -11 8 -5 -6z"/>
<path d="M163 1993 c4 -3 1 -13 -6 -22 -11 -14 -10 -14 5 -2 16 12 16 31 1 31
-4 0 -3 -3 0 -7z"/>
<path d="M1949 1943 c-13 -16 -12 -17 4 -4 9 7 17 15 17 17 0 8 -8 3 -21 -13z"/>
<path d="M135 1940 c-3 -5 -2 -10 4 -10 5 0 13 5 16 10 3 6 2 10 -4 10 -5 0
-13 -4 -16 -10z"/>
<path d="M623 1865 c0 -7 6 -11 14 -8 7 3 13 6 13 8 0 2 -6 5 -13 8 -8 3 -14
-1 -14 -8z"/>
<path d="M1886 1861 c-4 -5 -2 -12 3 -15 5 -4 12 -2 15 3 4 5 2 12 -3 15 -5 4
-12 2 -15 -3z"/>
<path d="M84 1821 c4 -5 1 -12 -4 -14 -6 -3 -5 -4 2 -3 15 3 23 26 8 26 -6 0
-9 -4 -6 -9z"/>
<path d="M70 1780 c0 -5 5 -10 11 -10 5 0 7 5 4 10 -3 6 -8 10 -11 10 -2 0 -4
-4 -4 -10z"/>
<path d="M2266 1728 c3 -4 11 -5 19 -1 21 7 19 12 -4 10 -11 0 -18 -5 -15 -9z"/>
<path d="M1202 1701 c2 -19 -4 -24 -12 -11 -7 12 -13 9 -34 -13 -25 -27 -34
-43 -18 -33 4 2 8 -15 7 -39 0 -24 -4 -41 -8 -38 -5 3 -6 12 -3 20 3 8 1 11
-5 8 -5 -4 -7 -16 -3 -27 5 -16 3 -19 -7 -12 -12 6 -12 5 0 -9 15 -18 26 -23
16 -7 -3 6 -2 10 4 10 5 0 9 -9 8 -20 -1 -15 -6 -19 -22 -14 -13 3 -16 2 -7
-4 7 -4 14 -18 17 -30 2 -12 7 -28 11 -35 4 -6 -3 -3 -17 8 -13 11 -18 13 -11
5 14 -17 16 -34 2 -25 -16 10 -11 -1 7 -16 11 -10 14 -10 9 -1 -4 6 -3 12 3
12 5 0 9 -9 8 -20 -1 -15 -6 -19 -22 -14 -13 3 -16 2 -7 -4 7 -4 14 -17 16
-28 3 -10 8 -28 12 -39 7 -20 7 -20 -12 0 -10 11 -16 16 -11 11 4 -6 7 -18 7
-29 0 -10 4 -16 8 -13 5 3 9 -1 9 -10 0 -9 -7 -13 -21 -9 -12 3 -15 2 -8 -1 6
-3 9 -11 6 -16 -4 -6 -2 -8 3 -5 6 4 13 0 17 -8 3 -8 0 -17 -6 -21 -7 -5 -8
-2 -3 6 5 9 4 11 -4 6 -6 -4 -9 -12 -5 -17 3 -5 1 -16 -6 -24 -8 -10 -8 -15 1
-21 7 -4 9 -3 5 4 -4 6 4 16 16 23 19 10 21 10 12 -2 -5 -8 -16 -27 -23 -43
-10 -26 -10 -28 3 -17 11 9 16 9 22 0 4 -8 3 -9 -4 -5 -7 4 -11 -2 -10 -16 1
-38 -2 -49 -12 -43 -6 3 -7 -1 -4 -9 3 -9 12 -16 19 -16 8 0 16 -4 19 -9 3 -4
-6 -7 -19 -5 -21 2 -23 -1 -15 -16 5 -9 6 -21 2 -25 -4 -5 -2 -5 5 -1 7 4 9
14 6 23 -6 15 -5 16 9 3 9 -8 14 -18 12 -22 -2 -4 1 -10 7 -14 8 -5 9 -3 4 6
-5 9 -2 10 13 6 19 -7 38 16 27 33 -4 8 25 7 55 -1 8 -3 12 -3 7 -1 -16 10 5
21 31 17 19 -3 23 -2 12 5 -8 5 -17 8 -21 5 -4 -2 -11 1 -15 7 -4 8 -3 9 5 5
6 -4 14 0 17 9 6 14 8 14 20 -2 10 -14 12 -14 11 -3 -2 8 -6 22 -11 30 -4 8 1
5 12 -7 l20 -22 7 22 c4 12 7 24 7 27 0 3 8 7 19 7 17 2 24 -8 20 -30 -1 -5 3
-6 7 -3 5 3 8 17 7 30 -2 15 1 23 8 20 7 -2 24 7 40 21 15 14 27 22 27 18 0
-4 -12 -17 -27 -29 -18 -14 -23 -23 -14 -28 6 -4 10 -4 9 1 -2 4 1 9 6 10 5 0
13 8 18 17 5 9 16 13 26 10 13 -5 14 -4 3 4 -23 16 -4 33 26 21 14 -5 28 -7
31 -4 3 3 0 5 -7 5 -7 0 -9 4 -6 10 3 6 -1 7 -12 4 -15 -4 -14 -3 2 7 25 17
38 18 47 4 5 -6 8 -2 8 9 0 16 2 17 17 5 15 -13 15 -12 3 11 -7 14 -9 22 -5
18 5 -4 15 -2 24 5 14 11 14 10 2 -6 -12 -15 -12 -17 3 -11 9 3 16 12 16 19 0
8 5 17 12 21 8 5 9 2 4 -11 -5 -15 -4 -16 9 -5 8 7 12 17 8 23 -4 6 -1 7 6 3
7 -5 10 -15 7 -25 -4 -11 -2 -10 10 4 8 11 20 19 25 17 6 -1 8 2 4 8 -3 6 -10
8 -14 6 -4 -3 -13 0 -21 5 -11 6 -5 8 17 4 26 -4 33 -1 38 15 4 11 11 18 16
14 5 -3 7 -10 4 -15 -10 -15 1 -10 15 7 11 12 11 15 -1 12 -8 -2 -13 4 -12 15
0 10 -1 16 -4 13 -3 -3 -14 5 -24 17 -10 12 -18 18 -19 14 0 -5 7 -15 15 -23
8 -9 15 -21 15 -27 0 -7 -5 -4 -11 6 -6 9 -15 15 -20 11 -5 -3 -8 0 -7 8 2 8
-5 12 -17 10 -20 -3 -20 -3 -1 11 15 11 16 16 6 22 -9 5 -11 4 -6 -3 4 -7 3
-12 -3 -12 -5 0 -12 8 -14 18 -4 16 -5 16 -6 0 -1 -22 -19 -24 -27 -3 -4 8
-11 12 -18 8 -6 -4 -4 2 4 12 9 11 10 16 3 11 -7 -4 -13 -2 -13 4 0 7 -7 7
-22 -1 -21 -11 -22 -11 -9 5 8 9 11 19 7 23 -3 3 -6 2 -6 -4 0 -6 -7 -14 -16
-17 -15 -6 -15 -4 -3 10 12 15 11 16 -8 10 -15 -5 -24 -2 -31 10 -5 9 -23 17
-41 18 -17 0 -31 4 -31 9 0 4 -5 5 -12 1 -7 -4 -8 -3 -4 4 5 9 13 9 26 2 13
-7 21 -7 26 2 4 7 3 8 -4 4 -7 -4 -12 -3 -12 3 0 5 -12 8 -27 6 -23 -2 -25 -1
-10 9 14 11 12 13 -14 13 -21 0 -26 -3 -17 -9 10 -7 9 -9 -2 -5 -8 2 -13 12
-11 23 3 18 2 18 -16 1 -16 -14 -20 -14 -20 -2 0 8 4 12 9 9 4 -3 8 0 8 7 0 6
-8 9 -19 6 -11 -3 -30 3 -43 11 -13 9 -25 16 -28 15 -3 -1 -4 5 -2 13 2 8 -1
14 -5 13 -25 -4 -40 4 -55 29 -10 15 -18 21 -18 14 0 -7 -5 -10 -10 -7 -6 4
-8 10 -6 14 3 4 -1 8 -9 8 -8 0 -14 -3 -13 -6z m54 -33 c4 -7 3 -8 -4 -4 -7 4
-12 2 -12 -5 0 -7 -3 -10 -6 -6 -6 5 3 27 11 27 2 0 7 -5 11 -12z m509 -328
c3 -5 1 -10 -4 -10 -6 0 -11 5 -11 10 0 6 2 10 4 10 3 0 8 -4 11 -10z m-561
-331 c-3 -5 -10 -7 -15 -3 -5 3 -7 10 -3 15 3 5 10 7 15 3 5 -3 7 -10 3 -15z"/>
<path d="M1136 1687 c3 -10 9 -15 12 -12 3 3 0 11 -7 18 -10 9 -11 8 -5 -6z"/>
<path d="M1114 1620 c0 -13 4 -16 10 -10 7 7 7 13 0 20 -6 6 -10 3 -10 -10z"/>
<path d="M1325 1630 c-4 -6 -3 -9 2 -8 4 1 18 -3 31 -10 30 -17 28 -8 -2 12
-16 10 -27 12 -31 6z"/>
<path d="M1386 1618 c3 -5 10 -6 15 -3 13 9 11 12 -6 12 -8 0 -12 -4 -9 -9z"/>
<path d="M1681 1434 c0 -11 3 -14 6 -6 3 7 2 16 -1 19 -3 4 -6 -2 -5 -13z"/>
<path d="M470 1390 c0 -5 5 -10 11 -10 5 0 7 5 4 10 -3 6 -8 10 -11 10 -2 0
-4 -4 -4 -10z"/>
<path d="M275 1369 c-10 -15 3 -25 16 -12 7 7 7 13 1 17 -6 3 -14 1 -17 -5z"/>
<path d="M356 1371 c-4 -7 -5 -15 -2 -18 9 -9 19 4 14 18 -4 11 -6 11 -12 0z"/>
<path d="M2289 1333 c15 -30 14 -41 -2 -18 -13 17 -15 16 -30 -15 -19 -38 -21
-43 -8 -35 5 3 12 1 16 -4 3 -6 -3 -8 -15 -6 -20 4 -22 1 -23 -32 -1 -10 -6
-22 -12 -26 -5 -5 1 -5 15 -2 l25 6 -25 -21 c-14 -12 -19 -19 -12 -15 16 8 15
-4 -3 -35 -8 -14 -10 -29 -5 -35 5 -6 5 -17 0 -25 -7 -11 -11 -11 -23 -1 -12
10 -15 10 -13 -1 6 -29 19 -47 29 -41 6 3 7 1 3 -6 -4 -6 -10 -9 -14 -7 -4 2
-16 -3 -27 -11 -15 -12 -16 -14 -3 -10 12 4 16 1 15 -13 -1 -15 -4 -17 -16 -7
-12 10 -13 9 -3 -9 9 -16 8 -21 -3 -21 -8 0 -12 4 -9 8 2 4 -1 11 -7 15 -7 4
-9 3 -5 -4 3 -6 2 -13 -4 -17 -17 -10 -1 -24 22 -20 11 3 17 1 14 -3 -7 -7
-11 -8 -37 -11 -8 -1 -8 -6 1 -16 7 -9 10 -18 6 -22 -3 -3 -6 -2 -6 4 0 6 -7
13 -15 17 -13 4 -13 2 -5 -14 15 -28 12 -37 -5 -14 -13 16 -14 16 -9 1 3 -9 1
-23 -5 -31 -6 -7 -7 -16 -3 -20 4 -5 -2 -6 -12 -4 -10 1 -21 -3 -24 -11 -3 -9
0 -11 8 -6 9 5 11 4 6 -4 -5 -8 -12 -9 -20 -2 -8 7 -12 4 -13 -10 -1 -14 3
-19 13 -15 8 3 14 3 14 0 0 -2 -12 -9 -26 -14 -14 -6 -22 -15 -19 -20 4 -6 3
-10 -2 -9 -22 4 -34 -2 -27 -13 6 -10 4 -10 -8 0 -13 10 -18 10 -24 1 -4 -7
-3 -9 3 -6 6 4 13 1 16 -7 4 -10 0 -12 -16 -8 -20 5 -21 4 -7 -13 14 -17 14
-18 -7 -6 -21 11 -27 8 -24 -11 0 -5 -4 -8 -10 -8 -5 0 -7 -5 -3 -12 5 -8 2
-9 -9 -5 -9 3 -23 0 -31 -8 -7 -8 -17 -11 -21 -7 -4 4 -3 -3 3 -15 10 -18 9
-20 -8 -16 -11 3 -18 9 -15 13 3 5 1 12 -5 15 -6 4 -10 3 -9 -2 3 -13 -12 -43
-23 -43 -5 0 -6 5 -2 12 4 7 3 8 -5 4 -9 -6 -9 -12 1 -24 7 -10 8 -14 4 -10
-5 4 -16 2 -24 -5 -13 -9 -14 -9 -8 1 4 6 2 12 -3 12 -6 0 -11 -7 -11 -16 0
-11 -5 -14 -16 -10 -11 4 -15 2 -11 -7 3 -8 -1 -14 -9 -14 -7 0 -11 3 -9 7 2
3 -5 6 -15 6 -15 0 -17 -3 -7 -15 10 -12 9 -13 -10 -3 -27 15 -33 15 -33 2 0
-5 5 -9 11 -7 6 1 13 -4 15 -11 1 -7 0 -8 -2 -3 -3 5 -16 7 -29 5 -20 -3 -23
-1 -18 13 7 19 5 18 -17 -11 -8 -11 -10 -17 -3 -13 6 4 14 4 16 0 3 -5 -8 -9
-24 -9 -26 -2 -28 0 -17 15 11 14 11 14 -3 4 -9 -7 -19 -10 -22 -6 -13 12 -7
-13 6 -27 10 -12 9 -12 -5 -2 -9 7 -18 9 -20 5 -3 -4 -4 -3 -2 4 1 6 -5 10
-14 8 -9 -1 -23 2 -30 8 -7 6 -12 6 -11 1 4 -21 -2 -35 -11 -29 -6 4 -8 10 -6
14 3 4 -5 8 -17 8 -19 2 -20 1 -5 -8 9 -5 15 -16 12 -24 -4 -8 -11 -12 -16 -9
-6 4 -6 9 2 14 8 5 5 9 -8 12 -11 3 -26 1 -33 -4 -10 -7 -9 -8 6 -3 14 4 17 3
9 -5 -12 -12 -47 -3 -38 11 9 16 -8 10 -21 -7 -10 -15 -15 -14 -53 5 -30 15
-40 17 -36 7 5 -13 -11 -15 -36 -6 -3 1 -8 2 -12 1 -5 0 -8 4 -8 9 0 13 13 13
26 0 7 -7 11 -6 11 3 0 15 -49 18 -63 4 -11 -10 -26 -9 -19 2 3 5 1 12 -4 15
-5 4 -13 1 -17 -5 -5 -8 -3 -9 7 -4 8 5 10 4 6 0 -9 -11 -39 -16 -33 -7 2 4
-3 14 -12 22 -14 13 -15 12 -9 -3 3 -9 2 -17 -3 -17 -6 0 -10 9 -10 19 0 15
-5 18 -22 13 -16 -4 -19 -2 -13 9 5 8 5 11 0 7 -4 -4 -14 0 -22 10 -10 12 -9
6 2 -18 l17 -35 -25 29 c-16 20 -26 25 -31 18 -4 -7 -12 -12 -18 -12 -6 0 -1
9 12 20 13 11 19 20 14 20 -6 0 -15 -5 -22 -12 -9 -9 -12 -9 -12 1 0 16 -26
42 -34 34 -3 -3 2 -11 11 -18 13 -9 13 -14 3 -20 -8 -5 -11 -4 -7 2 4 6 0 13
-8 17 -8 3 -15 0 -15 -6 0 -6 -3 -9 -6 -6 -3 4 -1 16 6 27 8 17 8 21 -2 19 -7
-2 -12 2 -11 9 2 7 -4 10 -12 7 -8 -4 -15 -1 -15 7 0 7 -2 10 -5 7 -8 -8 6
-39 15 -33 5 3 11 1 14 -4 4 -5 -2 -8 -11 -7 -9 2 -19 8 -21 14 -2 7 -7 10
-12 7 -10 -6 -8 15 4 35 7 12 6 13 -5 3 -7 -7 -20 -13 -29 -13 -13 0 -13 2 0
11 12 9 11 10 -7 6 -14 -3 -20 -1 -17 8 3 7 -2 15 -12 19 -12 5 -15 2 -10 -11
6 -14 5 -15 -5 -6 -10 10 -9 16 2 29 8 10 9 15 2 11 -6 -4 -13 -2 -15 3 -2 6
-13 12 -26 13 -12 0 -22 5 -22 10 0 5 7 7 15 3 8 -3 15 -1 15 3 0 5 -7 11 -15
15 -8 3 -15 11 -14 18 0 10 2 10 6 1 7 -20 22 -15 20 5 -1 19 41 80 56 81 5 1
5 -3 2 -9 -3 -6 -2 -10 3 -10 12 0 24 29 17 40 -3 4 8 7 23 6 25 -2 28 1 24
21 -2 13 1 23 7 23 5 0 8 -8 4 -17 -5 -15 -3 -15 10 2 17 21 12 45 -9 45 -8 0
-14 5 -14 11 0 6 -6 9 -14 6 -7 -3 -19 0 -26 6 -10 10 -10 8 -2 -9 9 -16 8
-21 -3 -21 -8 0 -12 4 -9 9 8 13 -50 -3 -58 -16 -5 -7 -8 -7 -8 0 0 5 5 15 11
21 7 7 6 12 -6 17 -9 3 -13 2 -10 -4 3 -5 -5 -14 -17 -21 -22 -12 -22 -11 -8
6 14 17 13 18 -2 12 -11 -4 -18 -2 -18 6 0 9 -3 8 -9 -1 -4 -8 -11 -13 -15
-12 -18 3 -76 -14 -76 -23 0 -6 -3 -7 -6 -4 -4 4 -2 13 5 21 9 11 8 15 -4 20
-9 3 -13 2 -10 -4 3 -5 -5 -14 -17 -21 -22 -12 -22 -11 -8 6 14 17 13 18 -3
12 -10 -4 -17 -2 -17 6 0 9 -3 8 -9 -1 -12 -20 -16 -19 -41 3 -12 11 -21 15
-20 10 5 -22 -1 -27 -17 -14 -12 10 -15 11 -9 1 6 -10 1 -11 -21 -7 -24 5 -25
4 -7 -4 12 -5 25 -15 29 -21 5 -8 2 -9 -11 -1 -11 5 -27 12 -38 15 -16 5 -16
9 -5 24 12 16 12 16 -6 0 -16 -15 -16 -19 -4 -35 13 -17 13 -17 -6 -2 -11 9
-26 14 -34 11 -8 -3 -11 0 -7 7 5 7 1 9 -9 5 -11 -5 -14 -2 -9 12 5 18 5 18
-6 1 -6 -9 -16 -14 -22 -11 -7 5 -8 2 -3 -6 5 -8 3 -11 -6 -8 -8 3 -13 11 -11
17 1 7 -2 9 -8 6 -6 -4 -9 -13 -6 -21 3 -8 2 -13 -2 -13 -21 3 -24 -3 -6 -17
18 -14 18 -15 -4 -4 -25 12 -45 4 -23 -9 18 -11 16 -24 -6 -32 -15 -6 -15 -8
-2 -8 9 -1 20 -8 23 -17 5 -14 4 -15 -8 -5 -13 11 -14 9 -10 -14 3 -20 1 -25
-8 -19 -10 6 -11 5 -1 -8 7 -8 9 -19 5 -23 -4 -5 -2 -5 4 -2 6 3 11 0 11 -8 0
-8 -4 -12 -9 -9 -4 3 -8 0 -8 -5 0 -6 5 -11 10 -11 6 0 10 -5 10 -11 0 -5 -4
-8 -9 -4 -5 3 -13 0 -17 -6 -4 -8 -3 -9 4 -5 6 3 16 -3 22 -15 10 -17 9 -20
-2 -13 -27 17 -42 12 -18 -6 19 -15 21 -20 8 -20 -9 0 -20 -5 -24 -12 -4 -7
-3 -8 4 -4 7 4 20 2 29 -4 17 -11 17 -11 0 -6 -22 7 -22 -3 1 -21 9 -8 11 -12
5 -8 -8 4 -13 0 -13 -9 0 -9 5 -16 11 -16 6 0 3 -8 -8 -17 -10 -10 -14 -15 -7
-10 7 4 14 1 18 -9 9 -24 6 -42 -4 -19 -5 11 -9 14 -9 7 -1 -7 -5 -10 -11 -7
-6 3 -7 -1 -4 -9 3 -9 10 -16 15 -16 14 0 6 -24 -11 -32 -13 -6 -12 -7 1 -7 9
-1 20 -8 23 -17 5 -14 4 -15 -8 -5 -12 10 -14 9 -11 -6 2 -10 4 -22 4 -28 1
-5 6 -3 11 5 5 8 10 10 10 4 0 -18 -13 -24 -27 -12 -11 8 -12 7 -7 -6 3 -9 11
-16 18 -16 6 0 4 -5 -4 -10 -10 -6 -11 -10 -2 -10 6 0 12 -5 12 -11 0 -5 -4
-8 -9 -4 -5 3 -12 1 -15 -4 -4 -5 -1 -13 5 -17 8 -5 9 -3 4 6 -5 9 -4 11 4 6
6 -4 8 -13 4 -19 -17 -28 -10 -44 19 -42 36 3 63 24 48 39 -5 5 -10 14 -10 20
0 5 9 -1 20 -14 l19 -22 -3 29 c-2 17 0 36 6 44 8 11 9 11 5 -3 -4 -10 1 -18
14 -21 15 -4 18 -2 10 7 -11 13 -5 26 11 26 5 0 6 -6 2 -12 -4 -8 -3 -10 2 -5
5 5 9 17 9 28 0 10 4 18 10 17 5 -2 8 -10 7 -17 -3 -13 -2 -13 14 -1 15 14 16
13 9 -9 -6 -21 -5 -22 8 -10 8 8 13 17 11 21 -2 4 0 9 5 12 11 7 9 -13 -3 -32
-4 -7 -4 -12 1 -11 22 4 34 -2 27 -13 -5 -8 0 -7 11 2 16 14 17 13 11 -7 -5
-17 -2 -25 16 -34 13 -7 26 -17 30 -23 5 -8 8 -7 8 1 0 7 -12 19 -26 26 -24
13 -25 15 -8 21 10 4 15 4 11 0 -4 -4 2 -13 13 -21 11 -8 20 -23 20 -34 0 -10
3 -19 8 -20 4 0 22 -2 40 -4 36 -4 57 -15 29 -15 -20 0 -21 -9 -6 -30 10 -13
10 -13 6 1 -3 9 1 16 9 16 8 0 13 -6 10 -13 -3 -8 1 -17 8 -21 7 -5 16 -15 19
-23 4 -12 6 -11 6 3 1 10 -6 20 -14 23 -8 4 -12 10 -9 15 6 11 27 -8 37 -34 3
-9 10 -17 14 -16 24 4 43 -2 37 -12 -4 -7 2 -6 17 2 21 11 23 11 11 -3 -10
-13 -10 -18 -1 -24 8 -4 9 -3 5 4 -11 19 5 14 21 -6 12 -14 14 -14 10 -1 -3 9
1 16 8 16 7 0 12 -8 10 -18 -3 -12 1 -16 11 -12 9 3 14 0 12 -7 -2 -7 4 -14
12 -15 8 -2 24 -6 35 -10 13 -4 12 -1 -5 8 -14 9 -29 13 -34 10 -5 -4 -6 -1
-2 5 5 8 13 9 25 2 10 -5 21 -7 24 -4 3 3 8 -4 12 -15 8 -27 25 -28 18 -1 -3
11 0 20 6 20 5 0 8 -7 5 -14 -4 -11 0 -14 19 -10 28 5 45 -10 26 -22 -8 -4 -9
-3 -5 4 4 7 2 12 -3 12 -6 0 -11 -7 -11 -16 0 -9 8 -14 18 -13 9 1 24 1 32 0
13 -1 13 -2 0 -11 -8 -5 -10 -10 -4 -10 21 0 24 14 7 34 -14 15 -14 18 -2 8 9
-6 19 -8 23 -4 4 4 7 3 6 -3 -6 -30 15 -43 36 -22 11 10 24 8 24 -4 0 -5 -4
-8 -8 -5 -5 3 -9 -1 -9 -9 0 -9 5 -11 11 -6 6 4 22 11 36 14 22 5 23 5 8 -7
-24 -18 -23 -29 1 -17 10 6 21 8 23 5 10 -9 48 -13 43 -3 -4 5 -1 9 4 9 6 0
11 -4 11 -8 0 -5 7 -9 15 -9 8 0 12 4 9 9 -3 4 0 8 5 8 6 0 11 -4 11 -8 0 -5
6 -9 14 -9 8 0 12 7 9 16 -4 11 -1 10 9 -3 11 -13 17 -16 22 -7 4 6 12 8 18 5
6 -4 22 -8 35 -10 19 -2 23 1 19 14 -5 15 -5 15 6 2 15 -17 26 -19 47 -6 9 6
12 5 8 0 -3 -6 19 -9 55 -9 51 1 63 4 79 25 21 28 25 20 7 -13 -10 -20 -10
-21 5 -9 9 8 21 11 28 7 8 -5 8 -2 1 11 -9 17 -6 19 19 20 16 1 26 -2 23 -7
-7 -12 7 -11 26 1 10 6 11 10 3 10 -7 0 -13 4 -13 8 0 5 7 9 15 9 8 0 12 -3
10 -7 -2 -3 0 -12 6 -20 7 -12 9 -11 10 5 1 11 1 23 1 26 -1 3 9 4 21 3 12 -1
26 -3 30 -3 5 -1 5 -6 1 -13 -4 -6 -3 -8 4 -4 6 3 9 15 7 26 -2 11 1 23 7 26
6 4 8 3 5 -2 -3 -6 -2 -16 4 -24 7 -12 9 -12 9 -1 0 8 7 11 20 8 10 -3 19 -2
18 2 -2 19 3 24 12 11 8 -13 10 -12 10 3 0 15 3 16 23 6 l22 -12 -20 24 c-17
20 -17 22 -1 9 16 -13 20 -12 32 4 7 10 23 19 36 20 13 1 22 7 20 15 -1 8 2
10 10 5 18 -12 39 -14 33 -4 -6 10 24 22 36 15 5 -4 6 1 3 10 -5 11 -10 13
-19 5 -10 -8 -15 -8 -21 1 -4 7 -3 9 4 5 6 -3 14 -2 17 4 5 8 11 7 22 -1 12
-11 14 -10 11 5 -2 12 4 20 15 21 10 2 14 -1 11 -7 -5 -7 -2 -8 5 -4 7 5 10
14 7 22 -5 12 -2 12 17 3 19 -11 21 -10 9 3 -8 10 -9 19 -3 22 5 4 14 -1 19
-10 8 -14 12 -12 30 11 12 15 22 24 22 20 0 -4 7 -2 15 5 10 9 12 16 5 25 -12
14 7 36 25 28 15 -5 38 30 27 41 -3 4 1 4 10 1 16 -6 44 26 33 37 -3 3 2 5 10
5 8 0 12 -4 9 -8 -2 -4 0 -10 5 -13 14 -9 7 19 -9 40 -14 16 -12 16 15 -1 17
-11 27 -15 23 -11 -13 15 11 46 30 40 16 -5 16 -5 -1 6 -9 6 -22 8 -27 5 -6
-3 -10 -4 -10 -1 0 3 9 10 21 16 15 8 24 8 34 0 11 -9 12 -7 8 9 -3 12 -10 18
-16 14 -6 -3 -2 5 9 19 14 19 22 23 32 16 7 -6 15 -8 19 -4 3 3 1 6 -5 6 -7 0
-12 4 -12 10 0 5 8 7 18 4 16 -5 16 -5 -1 6 -9 6 -15 16 -11 21 4 7 10 7 18 0
8 -7 12 -4 13 10 1 11 -2 17 -7 14 -5 -3 -11 -1 -14 4 -4 5 5 8 19 6 14 -1 28
2 32 8 3 6 1 7 -5 3 -6 -3 -13 -2 -17 4 -3 5 2 10 13 10 13 0 18 6 17 23 -3
29 12 47 32 40 13 -5 15 -2 9 13 -14 35 -14 51 0 51 10 0 11 -4 3 -13 -7 -9
-6 -14 3 -20 7 -4 10 -4 6 1 -4 4 -3 14 3 21 13 16 2 37 -13 28 -6 -4 -8 -2
-5 4 4 5 17 8 30 5 14 -3 18 -2 10 4 -7 5 -10 19 -6 31 5 19 8 20 21 10 12
-11 12 -7 -2 21 -11 20 -13 30 -5 25 9 -5 10 -2 6 10 -4 10 -3 15 3 11 6 -3
13 1 16 9 3 9 10 14 14 11 5 -3 12 -1 15 5 4 6 3 10 -2 9 -19 -3 -33 2 -33 12
0 5 5 7 10 4 6 -3 10 -2 10 4 0 5 -5 13 -12 17 -8 5 -3 14 16 29 l27 21 -23
30 c-18 23 -19 26 -3 14 17 -14 18 -13 12 3 -4 11 -3 16 4 12 6 -4 8 -13 5
-21 -3 -7 -1 -16 4 -19 10 -6 6 36 -5 56 -8 12 -6 12 8 0 16 -12 17 -12 11 5
-4 10 -11 24 -16 31 -6 7 -4 14 3 19 8 4 9 3 5 -4 -4 -7 -3 -12 1 -12 5 0 9
15 9 34 0 19 -4 32 -9 29 -5 -3 -5 3 1 13 12 24 8 70 -7 67 -6 -2 -11 2 -11 7
0 6 5 10 12 10 6 0 8 3 5 6 -4 4 -13 2 -21 -5 -19 -16 -56 -22 -56 -9 0 5 6 8
14 5 8 -3 20 2 28 11 12 15 11 16 -4 4 -12 -10 -18 -10 -23 -1 -4 6 -10 7 -14
2 -3 -4 -19 -14 -35 -21 -26 -11 -28 -11 -17 2 9 11 9 16 0 22 -8 4 -9 3 -5
-4 4 -7 3 -12 -3 -12 -5 0 -13 5 -16 10 -7 12 -25 4 -25 -12 0 -5 7 -7 16 -4
8 3 12 2 9 -3 -8 -15 -46 -9 -41 6 3 7 0 15 -6 19 -6 4 -8 3 -5 -4 5 -7 -15
-12 -55 -14 -48 -3 -66 0 -77 11 -12 14 -13 14 -8 -1 9 -26 -6 -31 -21 -6 -10
17 -12 18 -7 4 6 -20 6 -20 -16 0 -22 19 -22 19 -10 -3z m-36 -106 c3 -8 0
-14 -7 -14 -7 0 -13 6 -13 14 0 7 4 13 8 13 4 0 9 -6 12 -13z m-18 -127 c3 -6
-1 -7 -9 -4 -18 7 -21 14 -7 14 6 0 13 -4 16 -10z m-30 -58 c-3 -3 -11 0 -18
7 -9 10 -8 11 6 5 10 -3 15 -9 12 -12z m-1732 -85 c6 -15 -27 -17 -40 -2 -5 4
-3 5 4 1 6 -3 14 -2 18 4 8 13 12 13 18 -3z m47 -2 c0 -2 -6 -8 -13 -14 -10
-8 -14 -7 -14 2 0 8 6 14 14 14 7 0 13 -1 13 -2z m160 0 c0 -2 -6 -8 -13 -14
-10 -8 -14 -7 -14 2 0 8 6 14 14 14 7 0 13 -1 13 -2z m200 -32 c0 -2 -8 1 -19
6 -10 6 -20 8 -23 6 -3 -3 -5 1 -5 9 0 12 4 12 24 -1 13 -8 23 -17 23 -20z
m-669 -116 c-10 -9 -11 -8 -5 6 3 10 9 15 12 12 3 -3 0 -11 -7 -18z m1683
-185 c3 -5 -1 -9 -9 -9 -8 0 -12 4 -9 9 3 4 7 8 9 8 2 0 6 -4 9 -8z m-69 -42
c3 -5 1 -10 -4 -10 -6 0 -11 5 -11 10 0 6 2 10 4 10 3 0 8 -4 11 -10z m-648
-122 c-3 -8 -6 -5 -6 6 -1 11 2 17 5 13 3 -3 4 -12 1 -19z m317 0 c-3 -4 -9
-8 -15 -8 -5 0 -9 4 -9 8 0 5 7 9 15 9 8 0 12 -4 9 -9z m720 -149 c-6 -11 -24
-2 -24 11 0 5 7 7 15 4 8 -4 12 -10 9 -15z m-1996 -14 c-3 -3 -9 2 -12 12 -6
14 -5 15 5 6 7 -7 10 -15 7 -18z m52 21 c0 -3 -4 -8 -10 -11 -5 -3 -10 -1 -10
4 0 6 5 11 10 11 6 0 10 -2 10 -4z m1903 -31 c-12 -32 -23 -14 -14 23 1 2 5 1
11 -3 5 -3 7 -12 3 -20z m-1603 -1 c0 -8 -19 -13 -24 -6 -3 5 1 9 9 9 8 0 15
-2 15 -3z m1435 -93 c3 -5 2 -12 -3 -15 -5 -3 -9 1 -9 9 0 17 3 19 12 6z
m-458 -159 c11 8 12 7 7 -6 -8 -21 -18 -20 -35 2 -11 14 -11 15 1 5 10 -9 17
-10 27 -1z"/>
<path d="M2225 1289 c-11 -16 -1 -19 13 -3 7 8 8 14 3 14 -5 0 -13 -5 -16 -11z"/>
<path d="M1123 1113 c-17 -6 -17 -20 0 -20 8 0 14 6 14 14 0 7 -1 13 -1 12 -1
0 -7 -3 -13 -6z"/>
<path d="M1381 1102 c-17 -31 -13 -40 5 -14 9 13 14 26 11 29 -3 2 -10 -4 -16
-15z"/>
<path d="M1235 1020 c-3 -5 -1 -10 4 -10 6 0 11 5 11 10 0 6 -2 10 -4 10 -3 0
-8 -4 -11 -10z"/>
<path d="M2647 1023 c-3 -5 1 -14 8 -20 11 -10 13 -9 12 7 -1 20 -12 26 -20
13z"/>
<path d="M598 972 c4 -10 7 -12 10 -4 2 7 9 9 15 5 7 -3 8 -2 4 2 -14 16 -36
14 -29 -3z"/>
<path d="M758 972 c4 -10 7 -12 10 -4 2 7 9 9 15 5 7 -3 8 -2 4 2 -14 16 -36
14 -29 -3z"/>
<path d="M2635 920 c3 -5 8 -10 11 -10 2 0 4 5 4 10 0 6 -5 10 -11 10 -5 0 -7
-4 -4 -10z"/>
<path d="M2070 839 c0 -5 5 -7 10 -4 6 3 10 8 10 11 0 2 -4 4 -10 4 -5 0 -10
-5 -10 -11z"/>
<path d="M750 798 c-19 -29 -19 -30 -2 -10 14 15 22 18 25 10 3 -7 4 -3 4 10
-1 12 -2 22 -3 22 -2 0 -12 -15 -24 -32z"/>
<path d="M1992 761 c2 -7 7 -12 11 -12 12 1 9 15 -3 20 -7 2 -11 -2 -8 -8z"/>
<path d="M2533 705 c0 -8 4 -12 9 -9 4 3 8 9 8 15 0 5 -4 9 -8 9 -5 0 -9 -7
-9 -15z"/>
<path d="M180 601 c0 -6 4 -13 10 -16 6 -3 7 1 4 9 -7 18 -14 21 -14 7z"/>
<path d="M2426 551 c-4 -5 -2 -12 3 -15 5 -4 12 -2 15 3 4 5 2 12 -3 15 -5 4
-12 2 -15 -3z"/>
<path d="M1304 468 c3 -15 26 -23 26 -8 0 6 -4 9 -9 6 -5 -4 -12 -1 -14 4 -3
6 -4 5 -3 -2z"/>
<path d="M2225 340 c-3 -5 -1 -10 4 -10 6 0 11 5 11 10 0 6 -2 10 -4 10 -3 0
-8 -4 -11 -10z"/>
<path d="M205 260 c-3 -6 1 -7 9 -4 18 7 21 14 7 14 -6 0 -13 -4 -16 -10z"/>
<path d="M570 250 c-9 -6 -10 -10 -3 -10 6 0 15 5 18 10 8 12 4 12 -15 0z"/>
<path d="M1935 140 c-3 -5 -1 -10 4 -10 6 0 11 5 11 10 0 6 -2 10 -4 10 -3 0
-8 -4 -11 -10z"/>
<path d="M1980 139 c0 -5 5 -7 10 -4 6 3 10 8 10 11 0 2 -4 4 -10 4 -5 0 -10
-5 -10 -11z"/>
<path d="M926 63 c-6 -14 -5 -15 5 -6 7 7 10 15 7 18 -3 3 -9 -2 -12 -12z"/>
</g>
</svg>
